<svg width="100" height="100" viewBox="0 0 100 100" fill="none" xmlns="http://www.w3.org/2000/svg">
<path fill-rule="evenodd" clip-rule="evenodd" d="M51.1783 23.6635C53 23.1465 54.3343 21.4708 54.3343 19.4834C54.3343 17.0839 52.3891 15.1387 49.9896 15.1387C47.5901 15.1387 45.6449 17.0839 45.6449 19.4834C45.6449 21.4707 46.9791 23.1463 48.8006 23.6634L48.1312 28.6101C44.5107 28.8142 42.2725 29.6576 40.89 31.2082C32.7674 31.9183 26.6058 33.8262 22.4655 37.9094C22.3614 38.012 22.2587 38.1159 22.1572 38.2213C19.9531 40.5094 18.3514 43.4524 17.3618 47.2093C13.2925 48.2238 11.4316 50.8989 11.4316 57.9198C11.4316 64.9413 13.2927 67.6163 17.3626 68.6306C20.2924 79.7518 28 82.1403 34 83.5C40 84.8597 61.4817 85.6533 70.878 82.1403L70.8871 82.1367C76.854 79.7525 80.7851 75.5866 82.6173 68.6303C86.6867 67.6161 88.5475 64.941 88.5475 57.9199C88.5475 50.8989 86.6867 48.2244 82.6173 47.2095C79.7689 36.3957 71.8492 32.3244 59.0904 31.209C57.7077 29.6576 55.4689 28.814 51.8471 28.61L51.1783 23.6635ZM29.3831 73.1619C32.979 75.6856 39.5266 76.8606 49.9897 76.8606C60.4527 76.8606 67.0004 75.685 70.5962 73.1619C72.1905 72.0436 73.3106 70.5746 74.123 68.5406C75.1659 65.9271 75.6948 62.3531 75.6948 57.9192C75.6948 53.4854 75.1665 49.912 74.123 47.2985C73.3106 45.2645 72.1898 43.7955 70.5962 42.6772C67.0004 40.1535 60.4527 38.9785 49.9897 38.9785C39.5266 38.9785 32.979 40.1541 29.3831 42.6772C27.7889 43.7955 26.6687 45.2645 25.8564 47.2985C24.8129 49.9114 24.2839 53.4848 24.2839 57.9192C24.2839 62.3537 24.8129 65.9271 25.8564 68.5406C26.6687 70.5746 27.7889 72.0436 29.3831 73.1619ZM38.6937 52.8985C35.9787 52.8985 35.3974 55.3799 35.3974 57.9198C35.3974 60.4597 35.9787 62.9411 38.6937 62.9411C41.4086 62.9411 41.9899 60.4597 41.9899 57.9198C41.9899 55.3799 41.4086 52.8985 38.6937 52.8985ZM57.9888 57.9198C57.9888 55.3799 58.5701 52.8985 61.2851 52.8985C64 52.8985 64.5813 55.3799 64.5813 57.9198C64.5813 60.4597 64 62.9411 61.2851 62.9411C58.5701 62.9411 57.9888 60.4597 57.9888 57.9198Z" fill="black"/>
</svg>
